<?xml version="1.0" encoding="utf-8"?>
<!-- Generator: Adobe Illustrator 23.0.1, SVG Export Plug-In . SVG Version: 6.00 Build 0)  -->
<svg version="1.1" id="レイヤー_1" xmlns="http://www.w3.org/2000/svg" xmlns:xlink="http://www.w3.org/1999/xlink" x="0px"
	 y="0px" viewBox="0 0 424 100" style="enable-background:new 0 0 424 100;" xml:space="preserve">
<style type="text/css">
	.st0{fill:#D70027;}
</style>
<g>
	<g>
		<g>
			<path class="st0" d="M180.9,0.3l-9.1,28.4h-40.4l9.1-28.4H53.8c-0.3,0-35,1.4-41.2,21C7.4,37.5,30.7,40.4,40.1,40.4h12.2
				c4,0,15.9,1.1,13.4,8.5c-2.6,7.4-16.5,8-17.9,8H3.7L0,68.5h51.5c0.3,0,35-1.4,41.2-20.8c5.1-16.2-18.2-19.3-27.9-19.3H53.2
				c-4.3,0-15.9-1.1-13.4-8.5c2.6-7.4,16.5-7.7,17.9-7.7h54.9L94.7,68.5h24.2l9.1-28.2h39.8L159,68.3h24.2L205,0L180.9,0.3z
				 M216.1,0.3l-21.9,68.3h24.2l21.9-68.3H216.1z M295.5,0.3c-0.3,0-44.1,0.6-55.2,35c0,0-8.2,26.2-10.5,33.3h24.5l9.1-28.2h60
				l3.7-11.9h-59.2c6-9.7,14.8-16.2,25.6-16.2H364l-17.9,56.3h24.2l17.9-56.3H420l3.7-11.9H295.5z"/>
		</g>
	</g>
	<g>
		<path d="M315.9,76.7c1.4,0,2.6,0.1,3.8,0.3c1.2,0.2,2.3,0.6,3.4,1.1l-0.7,3.7c-1-0.4-2-0.7-3-0.9c-1-0.2-2.1-0.3-3.2-0.3
			c-1.2,0-2.3,0.2-3.3,0.5c-1,0.3-1.8,0.8-2.5,1.5c-0.7,0.7-1.2,1.5-1.6,2.6c-0.4,1-0.6,2.2-0.6,3.6c0,2.6,0.7,4.5,2,5.8
			c1.3,1.3,3.3,2,5.9,2c0.5,0,1.1,0,1.6-0.1c0.6-0.1,1.1-0.2,1.5-0.3v-6.7h4.3v9.2c-1.1,0.5-2.3,0.8-3.7,1.1
			c-1.4,0.3-2.9,0.4-4.3,0.4c-1.9,0-3.5-0.3-5-0.8c-1.5-0.6-2.7-1.3-3.8-2.3c-1-1-1.8-2.2-2.4-3.6c-0.5-1.4-0.8-2.9-0.8-4.6
			c0-1.8,0.3-3.4,0.8-4.9c0.6-1.5,1.4-2.7,2.4-3.8c1.1-1,2.3-1.9,3.9-2.4C312.3,77,314,76.7,315.9,76.7z"/>
		<path d="M347,83.9c0,1.6-0.5,2.9-1.4,4c-0.9,1.1-2.2,1.9-3.9,2.5l7.6,9.1h-5.9l-6.5-8.2h-1.5v8.2h-4.7V77.1h6.7
			c1.4,0,2.7,0.1,3.9,0.4c1.2,0.3,2.2,0.7,3,1.3c0.8,0.6,1.5,1.3,2,2.1C346.8,81.8,347,82.8,347,83.9z M342.3,84
			c0-1.2-0.5-2-1.4-2.5c-0.9-0.5-2.1-0.8-3.5-0.8h-2v7h1.4c1.6,0,2.9-0.3,3.9-0.9C341.8,86.2,342.3,85.3,342.3,84z"/>
		<path d="M375.3,88.3c0,1.6-0.3,3.1-0.8,4.5c-0.5,1.4-1.2,2.6-2.2,3.7c-1,1.1-2.1,1.9-3.5,2.5c-1.4,0.6-3,0.9-4.8,0.9
			c-1.8,0-3.4-0.3-4.8-0.9c-1.4-0.6-2.6-1.5-3.6-2.5c-1-1.1-1.7-2.3-2.2-3.7c-0.5-1.4-0.7-2.9-0.7-4.5c0-1.6,0.2-3.1,0.7-4.5
			c0.5-1.4,1.2-2.7,2.2-3.7c1-1.1,2.2-1.9,3.6-2.5c1.4-0.6,3-0.9,4.8-0.9c1.8,0,3.4,0.3,4.8,0.9c1.4,0.6,2.6,1.5,3.5,2.5
			c1,1.1,1.7,2.3,2.2,3.7C375,85.3,375.3,86.8,375.3,88.3z M363.9,96.3c1.1,0,2.1-0.2,2.9-0.6c0.8-0.4,1.5-1,2.1-1.7
			c0.6-0.7,1-1.5,1.2-2.5c0.3-1,0.4-2,0.4-3.1c0-1.1-0.1-2.2-0.4-3.1c-0.3-1-0.7-1.8-1.2-2.5c-0.6-0.7-1.2-1.3-2.1-1.7
			c-0.8-0.4-1.8-0.6-2.9-0.6c-1.1,0-2.1,0.2-2.9,0.6c-0.8,0.4-1.5,1-2.1,1.7c-0.6,0.7-1,1.5-1.2,2.5c-0.3,1-0.4,2-0.4,3.1
			c0,1.1,0.1,2.2,0.4,3.1c0.3,1,0.7,1.8,1.2,2.5c0.6,0.7,1.2,1.3,2.1,1.7C361.9,96.1,362.8,96.3,363.9,96.3z"/>
		<path d="M395.3,77.1h4.7v14.4c0,1.3-0.2,2.4-0.6,3.5c-0.4,1-1,1.9-1.8,2.7c-0.8,0.7-1.8,1.3-2.9,1.7c-1.2,0.4-2.5,0.6-3.9,0.6
			c-1.5,0-2.8-0.2-3.9-0.6c-1.1-0.4-2.1-1-2.9-1.7c-0.8-0.7-1.4-1.6-1.8-2.7c-0.4-1-0.6-2.2-0.6-3.5V77.1h4.7v14.6
			c0,1.4,0.4,2.5,1.2,3.3c0.8,0.8,1.9,1.2,3.4,1.2c1.5,0,2.6-0.4,3.4-1.2c0.8-0.8,1.2-1.9,1.2-3.3V77.1z"/>
		<path d="M423.1,84.2c0,1.2-0.3,2.3-0.8,3.2c-0.5,0.9-1.2,1.7-2.1,2.3c-0.9,0.6-2,1.1-3.2,1.4c-1.2,0.3-2.5,0.5-3.9,0.5h-0.9v8
			h-4.7V77.1h6.2c1.4,0,2.6,0.1,3.8,0.4c1.2,0.3,2.2,0.7,3,1.3c0.9,0.6,1.5,1.3,2,2.2C422.9,81.9,423.1,83,423.1,84.2z M418.4,84.2
			c0-1.2-0.4-2-1.3-2.6c-0.9-0.6-2-0.8-3.5-0.8h-1.4v7.1h1.1c1.6,0,2.8-0.3,3.7-0.9C417.9,86.4,418.4,85.4,418.4,84.2z"/>
	</g>
</g>
<g>
</g>
<g>
</g>
<g>
</g>
<g>
</g>
<g>
</g>
<g>
</g>
</svg>
